# xmcd CD database file
#
# Track frame offsets:
#	150
#	8365
#	21632
#	37095
#	47640
#	62905
#	77310
#	93245
#	108550
#	125062
#	139517
#	156232
#	164417
#	177380
#
# Disc length: 2508 seconds
#
# Revision: 0
# Processed by: cddbd v1.5.1PL0 Copyright (c) Steve Scherf et al.
# Submitted via: CDex 1.51
#
DISCID=b509ca0e
DTITLE=Sugarcult - Start Static
DYEAR=1900
DGENRE=Rock
TTITLE0=You're The One
TTITLE1=Stuck In America
TTITLE2=Hate Every Beautiful Day
TTITLE3=Bouncing Off The Walls
TTITLE4=Saying Goodbye
TTITLE5=Daddy's Little Defect
TTITLE6=Lost In You
TTITLE7=Pretty Girl (The Way)
TTITLE8=Crashing Down
TTITLE9=How Does It Feel
TTITLE10=I Changed My Name
TTITLE11=Say I'm Sorry
TTITLE12=Underwear
TTITLE13=トラック14
EXTD=
EXTT0=
EXTT1=
EXTT2=
EXTT3=
EXTT4=
EXTT5=
EXTT6=
EXTT7=
EXTT8=
EXTT9=
EXTT10=
EXTT11=
EXTT12=
EXTT13=
PLAYORDER=
